<?xml version="1.0" encoding="UTF-8"?>

<!DOCTYPE svg PUBLIC '-//W3C//DTD SVG 1.0//EN' 'http://www.w3.org/TR/2001/REC-SVG-20010904/DTD/svg10.dtd'>
<svg style="fill-opacity:1; color-rendering:auto; color-interpolation:auto; text-rendering:auto; stroke:black; stroke-linecap:square; stroke-miterlimit:10; shape-rendering:auto; stroke-opacity:1; fill:black; stroke-dasharray:none; font-weight:normal; stroke-width:1; font-family:&apos;sansserif&apos;; font-style:normal; stroke-linejoin:miter; font-size:12; stroke-dashoffset:0; image-rendering:auto;" xmlns="http://www.w3.org/2000/svg" width="525" xmlns:xlink="http://www.w3.org/1999/xlink" height="415">
  <!--Generated by the Batik Graphics2D SVG Generator-->
  <defs id="genericDefs" />
  <g>
    <defs id="defs1">
      <clipPath clipPathUnits="userSpaceOnUse" id="clipPath1">
        <path d="M-15 -15 L510 -15 L510 400 L-15 400 L-15 -15 Z" />
      </clipPath>
      <clipPath clipPathUnits="userSpaceOnUse" id="clipPath2">
        <path d="M0 0 L525 0 L525 415 L0 415 L0 0 Z" />
      </clipPath>
    </defs>
    <g style="fill:white; stroke:white;" transform="translate(15,15)">
      <rect x="-15" y="-15" width="525" style="clip-path:url(#clipPath1); stroke:none;" height="415" />
    </g>
    <g style="fill:white; stroke:white;">
      <rect x="9.125" y="391.75" width="104.904296875" style="clip-path:url(#clipPath2); stroke:none;" height="15.5625" />
      <text x="10" y="403" style="clip-path:url(#clipPath2); fill:silver; font-family:sans-serif; stroke:none;" xml:space="preserve">Powered by yFiles</text>
    </g>
    <g style="fill:rgb(255,204,0); stroke:rgb(255,204,0);" transform="matrix(1,0,0,1,15,15)">
      <rect x="170.29166666666666" y="50" width="95" style="clip-path:url(#clipPath1); stroke:none;" height="30" />
    </g>
    <g style="font-size:13; font-family:sans-serif;" transform="matrix(1,0,0,1,15,15)">
      <text x="177.2916717529297" y="70.106689453125" style="clip-path:url(#clipPath1); stroke:none;" xml:space="preserve">Preprocessor</text>
      <rect x="170.29166666666666" y="50" width="95" style="stroke-linecap:butt; clip-path:url(#clipPath1); fill:none; stroke-miterlimit:1.4500000476837158;" height="30" />
      <rect x="404" y="305" width="91" style="clip-path:url(#clipPath1); fill:rgb(255,204,0); stroke:none;" height="30" />
      <text x="411" y="325.106689453125" style="clip-path:url(#clipPath1); stroke:none;" xml:space="preserve">Architecture</text>
      <rect x="404" y="305" width="91" style="stroke-linecap:butt; clip-path:url(#clipPath1); fill:none; stroke-miterlimit:1.4500000476837158;" height="30" />
      <rect x="130" y="305" width="103" style="clip-path:url(#clipPath1); fill:rgb(255,204,0); stroke:none;" height="30" />
      <text x="137" y="325.106689453125" style="clip-path:url(#clipPath1); stroke:none;" xml:space="preserve">Debug Format</text>
      <rect x="130" y="305" width="103" style="stroke-linecap:butt; clip-path:url(#clipPath1); fill:none; stroke-miterlimit:1.4500000476837158;" height="30" />
      <rect x="254.08333333333331" y="230" width="103" style="clip-path:url(#clipPath1); fill:rgb(255,204,0); stroke:none;" height="30" />
      <text x="261.0833435058594" y="250.106689453125" style="clip-path:url(#clipPath1); stroke:none;" xml:space="preserve">Object Format</text>
      <rect x="254.08333333333331" y="230" width="103" style="stroke-linecap:butt; clip-path:url(#clipPath1); fill:none; stroke-miterlimit:1.4500000476837158;" height="30" />
      <rect x="373.8333333333333" y="170" width="76" style="clip-path:url(#clipPath1); fill:rgb(255,204,0); stroke:none;" height="30" />
      <text x="380.8333435058594" y="190.106689453125" style="clip-path:url(#clipPath1); stroke:none;" xml:space="preserve">Optimizer</text>
      <rect x="373.8333333333333" y="170" width="76" style="stroke-linecap:butt; clip-path:url(#clipPath1); fill:none; stroke-miterlimit:1.4500000476837158;" height="30" />
      <rect x="230.83333333333331" y="170" width="98" style="clip-path:url(#clipPath1); fill:rgb(255,204,0); stroke:none;" height="30" />
      <text x="237.8333282470703" y="190.106689453125" style="clip-path:url(#clipPath1); stroke:none;" xml:space="preserve">Symbol Table</text>
      <rect x="230.83333333333331" y="170" width="98" style="stroke-linecap:butt; clip-path:url(#clipPath1); fill:none; stroke-miterlimit:1.4500000476837158;" height="30" />
      <rect x="371.8333333333333" y="110" width="80" style="clip-path:url(#clipPath1); fill:rgb(255,204,0); stroke:none;" height="30" />
      <text x="392.8333435058594" y="130.106689453125" style="clip-path:url(#clipPath1); stroke:none;" xml:space="preserve">Parser</text>
      <rect x="371.8333333333333" y="110" width="80" style="stroke-linecap:butt; clip-path:url(#clipPath1); fill:none; stroke-miterlimit:1.4500000476837158;" height="30" />
      <rect x="0" y="305" width="85" style="clip-path:url(#clipPath1); fill:rgb(255,204,0); stroke:none;" height="30" />
      <text x="7" y="325.106689453125" style="clip-path:url(#clipPath1); stroke:none;" xml:space="preserve">List Format</text>
      <rect x="0" y="305" width="85" style="stroke-linecap:butt; clip-path:url(#clipPath1); fill:none; stroke-miterlimit:1.4500000476837158;" height="30" />
      <rect x="278" y="305" width="81" style="clip-path:url(#clipPath1); fill:rgb(153,204,255); stroke:none;" height="30" />
      <text x="285" y="325.106689453125" style="clip-path:url(#clipPath1); stroke:none;" xml:space="preserve">Object File</text>
      <rect x="278" y="305" width="81" style="stroke-linecap:butt; clip-path:url(#clipPath1); fill:none; stroke-miterlimit:1.4500000476837158;" height="30" />
      <rect x="2" y="355" width="81" style="clip-path:url(#clipPath1); fill:rgb(153,204,255); stroke:none;" height="30" />
      <text x="18" y="375.106689453125" style="clip-path:url(#clipPath1); stroke:none;" xml:space="preserve">List File</text>
      <rect x="2" y="355" width="81" style="stroke-linecap:butt; clip-path:url(#clipPath1); fill:none; stroke-miterlimit:1.4500000476837158;" height="30" />
      <rect x="177.29166666666666" y="0" width="81" style="clip-path:url(#clipPath1); fill:rgb(153,204,255); stroke:none;" height="30" />
      <text x="189.2916717529297" y="20.106689453125" style="clip-path:url(#clipPath1); stroke:none;" xml:space="preserve">.ASM File</text>
      <rect x="177.29166666666666" y="0" width="81" style="stroke-linecap:butt; clip-path:url(#clipPath1); fill:none; stroke-miterlimit:1.4500000476837158;" height="30" />
      <path style="fill:none; stroke-miterlimit:1.4500000476837158; clip-path:url(#clipPath1); stroke-linecap:butt;" d="M217.7916717529297 30 L217.7916717529297 49.9609375" />
      <path style="stroke-miterlimit:1.4500000476837158; clip-path:url(#clipPath1); stroke-linecap:butt; stroke:none;" d="M217.7916717529297 49.9609375 L222.7916717529297 37.9609375 L217.7916717529297 40.9609375 L212.7916717529297 37.9609375 Z" />
      <path style="fill:none; stroke-miterlimit:1.4500000476837158; clip-path:url(#clipPath1); stroke-linecap:butt;" d="M194.0416717529297 80 L194.0416717529297 95 L21.25 95 L21.25 304.974365234375" />
      <path style="stroke-miterlimit:1.4500000476837158; clip-path:url(#clipPath1); stroke-linecap:butt; stroke:none;" d="M21.25 304.974365234375 L26.25 292.974365234375 L21.25 295.974365234375 L16.25 292.974365234375 Z" />
      <path style="fill:none; stroke-miterlimit:1.4500000476837158; clip-path:url(#clipPath1); stroke-linecap:butt;" d="M266.9583435058594 260 L266.9583435058594 275 L63.75 275 L63.75 304.970703125" />
      <path style="stroke-miterlimit:1.4500000476837158; clip-path:url(#clipPath1); stroke-linecap:butt; stroke:none;" d="M63.75 304.970703125 L68.75 292.970703125 L63.75 295.970703125 L58.75 292.970703125 Z" />
      <path style="fill:none; stroke-miterlimit:1.4500000476837158; clip-path:url(#clipPath1); stroke-linecap:butt;" d="M292.7083435058594 260 L292.7083435058594 290 L181.5 290 L181.5 304.970703125" />
      <path style="stroke-miterlimit:1.4500000476837158; clip-path:url(#clipPath1); stroke-linecap:butt; stroke:none;" d="M292.7083435058594 260 L287.7083435058594 272 L292.7083435058594 269 L297.7083435058594 272 Z" />
      <path style="stroke-miterlimit:1.4500000476837158; clip-path:url(#clipPath1); stroke-linecap:butt; stroke:none;" d="M181.5 304.970703125 L186.5 292.970703125 L181.5 295.970703125 L176.5 292.970703125 Z" />
      <path style="fill:none; stroke-miterlimit:1.4500000476837158; clip-path:url(#clipPath1); stroke-linecap:butt;" d="M344.2083435058594 260 L344.2083435058594 275 L419.1666564941406 275 L419.1666564941406 304.970703125" />
      <path style="stroke-miterlimit:1.4500000476837158; clip-path:url(#clipPath1); stroke-linecap:butt; stroke:none;" d="M419.1666564941406 304.970703125 L424.1666564941406 292.970703125 L419.1666564941406 295.970703125 L414.1666564941406 292.970703125 Z" />
      <path style="fill:none; stroke-miterlimit:1.4500000476837158; clip-path:url(#clipPath1); stroke-linecap:butt;" d="M430.8333435058594 200 L430.8333435058594 215 L449.5 215 L449.5 304.9560546875" />
      <path style="stroke-miterlimit:1.4500000476837158; clip-path:url(#clipPath1); stroke-linecap:butt; stroke:none;" d="M430.8333435058594 200 L425.8333435058594 212 L430.8333435058594 209 L435.8333435058594 212 Z" />
      <path style="stroke-miterlimit:1.4500000476837158; clip-path:url(#clipPath1); stroke-linecap:butt; stroke:none;" d="M449.5 304.9560546875 L454.5 292.9560546875 L449.5 295.9560546875 L444.5 292.9560546875 Z" />
      <path style="fill:none; stroke-miterlimit:1.4500000476837158; clip-path:url(#clipPath1); stroke-linecap:butt;" d="M438.5 140 L438.5 155 L479.8333435058594 155 L479.8333435058594 304.96337890625" />
      <path style="stroke-miterlimit:1.4500000476837158; clip-path:url(#clipPath1); stroke-linecap:butt; stroke:none;" d="M479.8333435058594 304.96337890625 L484.8333435058594 292.96337890625 L479.8333435058594 295.96337890625 L474.8333435058594 292.96337890625 Z" />
      <path style="fill:none; stroke-miterlimit:1.4500000476837158; clip-path:url(#clipPath1); stroke-linecap:butt;" d="M411.8333435058594 140 L411.8333435058594 169.970703125" />
      <path style="stroke-miterlimit:1.4500000476837158; clip-path:url(#clipPath1); stroke-linecap:butt; stroke:none;" d="M411.8333435058594 169.970703125 L416.8333435058594 157.970703125 L411.8333435058594 160.970703125 L406.8333435058594 157.970703125 Z" />
      <path style="fill:none; stroke-miterlimit:1.4500000476837158; clip-path:url(#clipPath1); stroke-linecap:butt;" d="M392.8333435058594 200 L392.8333435058594 215 L331.3333435058594 215 L331.3333435058594 229.970703125" />
      <path style="stroke-miterlimit:1.4500000476837158; clip-path:url(#clipPath1); stroke-linecap:butt; stroke:none;" d="M331.3333435058594 229.970703125 L336.3333435058594 217.970703125 L331.3333435058594 220.970703125 L326.3333435058594 217.970703125 Z" />
      <path style="fill:none; stroke-miterlimit:1.4500000476837158; clip-path:url(#clipPath1); stroke-linecap:butt;" d="M385.1666564941406 140 L385.1666564941406 155 L279.8333435058594 155 L279.8333435058594 169.970703125" />
      <path style="stroke-miterlimit:1.4500000476837158; clip-path:url(#clipPath1); stroke-linecap:butt; stroke:none;" d="M385.1666564941406 140 L380.1666564941406 152 L385.1666564941406 149 L390.1666564941406 152 Z" />
      <path style="stroke-miterlimit:1.4500000476837158; clip-path:url(#clipPath1); stroke-linecap:butt; stroke:none;" d="M279.8333435058594 169.970703125 L284.8333435058594 157.970703125 L279.8333435058594 160.970703125 L274.8333435058594 157.970703125 Z" />
      <path style="fill:none; stroke-miterlimit:1.4500000476837158; clip-path:url(#clipPath1); stroke-linecap:butt;" d="M279.8333435058594 200 L279.8333435058594 229.970703125" />
      <path style="stroke-miterlimit:1.4500000476837158; clip-path:url(#clipPath1); stroke-linecap:butt; stroke:none;" d="M279.8333435058594 200 L274.8333435058594 212 L279.8333435058594 209 L284.8333435058594 212 Z" />
      <path style="stroke-miterlimit:1.4500000476837158; clip-path:url(#clipPath1); stroke-linecap:butt; stroke:none;" d="M279.8333435058594 229.970703125 L284.8333435058594 217.970703125 L279.8333435058594 220.970703125 L274.8333435058594 217.970703125 Z" />
      <path style="fill:none; stroke-miterlimit:1.4500000476837158; clip-path:url(#clipPath1); stroke-linecap:butt;" d="M42.5 335 L42.5 354.9609375" />
      <path style="stroke-miterlimit:1.4500000476837158; clip-path:url(#clipPath1); stroke-linecap:butt; stroke:none;" d="M42.5 354.9609375 L47.5 342.9609375 L42.5 345.9609375 L37.5 342.9609375 Z" />
      <path style="fill:none; stroke-miterlimit:1.4500000476837158; clip-path:url(#clipPath1); stroke-linecap:butt;" d="M318.4583435058594 260 L318.4999694824219 304.9560546875" />
      <path style="stroke-miterlimit:1.4500000476837158; clip-path:url(#clipPath1); stroke-linecap:butt; stroke:none;" d="M318.4999694824219 304.9560546875 L323.4888610839844 292.951416015625 L318.49163818359375 295.9560546875 L313.4888610839844 292.960693359375 Z" />
      <path style="fill:none; stroke-miterlimit:1.4500000476837158; clip-path:url(#clipPath1); stroke-linecap:butt;" d="M241.5416717529297 80 L241.5416717529297 95 L411.8333435058594 95 L411.8333435058594 109.970703125" />
      <path style="stroke-miterlimit:1.4500000476837158; clip-path:url(#clipPath1); stroke-linecap:butt; stroke:none;" d="M411.8333435058594 109.970703125 L416.8333435058594 97.970703125 L411.8333435058594 100.970703125 L406.8333435058594 97.970703125 Z" />
    </g>
  </g>
</svg>
