<?xml version="1.0" encoding="UTF-8"?>

<!DOCTYPE svg PUBLIC '-//W3C//DTD SVG 1.0//EN' 'http://www.w3.org/TR/2001/REC-SVG-20010904/DTD/svg10.dtd'>
<svg style="fill-opacity:1; color-rendering:auto; color-interpolation:auto; text-rendering:auto; stroke:black; stroke-linecap:square; stroke-miterlimit:10; shape-rendering:auto; stroke-opacity:1; fill:black; stroke-dasharray:none; font-weight:normal; stroke-width:1; font-family:&apos;sansserif&apos;; font-style:normal; stroke-linejoin:miter; font-size:12; stroke-dashoffset:0; image-rendering:auto;" xmlns="http://www.w3.org/2000/svg" width="635" xmlns:xlink="http://www.w3.org/1999/xlink" height="560">
  <!--Generated by the Batik Graphics2D SVG Generator-->
  <defs id="genericDefs" />
  <g>
    <defs id="defs1">
      <clipPath clipPathUnits="userSpaceOnUse" id="clipPath1">
        <path d="M-15 -15 L620 -15 L620 545 L-15 545 L-15 -15 Z" />
      </clipPath>
      <clipPath clipPathUnits="userSpaceOnUse" id="clipPath2">
        <path d="M0 0 L635 0 L635 560 L0 560 L0 0 Z" />
      </clipPath>
    </defs>
    <g style="fill:white; stroke:white;" transform="translate(15,15)">
      <rect x="-15" y="-15" width="635" style="clip-path:url(#clipPath1); stroke:none;" height="560" />
    </g>
    <g style="fill:white; stroke:white;">
      <rect x="9.125" y="536.75" width="104.904296875" style="clip-path:url(#clipPath2); stroke:none;" height="15.5625" />
      <text x="10" y="548" style="clip-path:url(#clipPath2); fill:silver; font-family:sans-serif; stroke:none;" xml:space="preserve">Powered by yFiles</text>
    </g>
    <g style="fill:rgb(255,204,0); stroke:rgb(255,204,0);" transform="matrix(1,0,0,1,15,15)">
      <rect x="149.20833333333334" y="60" width="136" style="clip-path:url(#clipPath1); stroke:none;" height="30" />
    </g>
    <g style="font-size:13; font-family:sans-serif;" transform="matrix(1,0,0,1,15,15)">
      <text x="156.2083282470703" y="80.106689453125" style="clip-path:url(#clipPath1); stroke:none;" xml:space="preserve">NASM Preprocessor</text>
      <rect x="149.20833333333334" y="60" width="136" style="stroke-linecap:butt; clip-path:url(#clipPath1); fill:none; stroke-miterlimit:1.4500000476837158;" height="30" />
      <rect x="486" y="450" width="119" style="clip-path:url(#clipPath1); fill:rgb(255,204,0); stroke:none;" height="30" />
      <text x="493" y="470.106689453125" style="clip-path:url(#clipPath1); stroke:none;" xml:space="preserve">x86 Architecture</text>
      <rect x="486" y="450" width="119" style="stroke-linecap:butt; clip-path:url(#clipPath1); fill:none; stroke-miterlimit:1.4500000476837158;" height="30" />
      <rect x="297" y="450" width="144" style="clip-path:url(#clipPath1); fill:rgb(255,204,0); stroke:none;" height="30" />
      <text x="304" y="470.106689453125" style="clip-path:url(#clipPath1); stroke:none;" xml:space="preserve">Turbo Debug Format</text>
      <rect x="297" y="450" width="144" style="stroke-linecap:butt; clip-path:url(#clipPath1); fill:none; stroke-miterlimit:1.4500000476837158;" height="30" />
      <rect x="347.125" y="330" width="35" style="clip-path:url(#clipPath1); fill:rgb(255,204,0); stroke:none;" height="30" />
      <text x="354.125" y="350.106689453125" style="clip-path:url(#clipPath1); stroke:none;" xml:space="preserve">OBJ</text>
      <rect x="347.125" y="330" width="35" style="stroke-linecap:butt; clip-path:url(#clipPath1); fill:none; stroke-miterlimit:1.4500000476837158;" height="30" />
      <rect x="393.5833333333333" y="240" width="112" style="clip-path:url(#clipPath1); fill:rgb(255,204,0); stroke:none;" height="30" />
      <text x="400.5833435058594" y="260.106689453125" style="clip-path:url(#clipPath1); stroke:none;" xml:space="preserve">Basic Optimizer</text>
      <rect x="393.5833333333333" y="240" width="112" style="stroke-linecap:butt; clip-path:url(#clipPath1); fill:none; stroke-miterlimit:1.4500000476837158;" height="30" />
      <rect x="250.58333333333334" y="240" width="98" style="clip-path:url(#clipPath1); fill:rgb(255,204,0); stroke:none;" height="30" />
      <text x="257.5833435058594" y="260.106689453125" style="clip-path:url(#clipPath1); stroke:none;" xml:space="preserve">Symbol Table</text>
      <rect x="250.58333333333334" y="240" width="98" style="stroke-linecap:butt; clip-path:url(#clipPath1); fill:none; stroke-miterlimit:1.4500000476837158;" height="30" />
      <rect x="284.0833333333333" y="150" width="93" style="clip-path:url(#clipPath1); fill:rgb(255,204,0); stroke:none;" height="30" />
      <text x="291.0833435058594" y="170.106689453125" style="clip-path:url(#clipPath1); stroke:none;" xml:space="preserve">NASM Parser</text>
      <rect x="284.0833333333333" y="150" width="93" style="stroke-linecap:butt; clip-path:url(#clipPath1); fill:none; stroke-miterlimit:1.4500000476837158;" height="30" />
      <rect x="0" y="450" width="126" style="clip-path:url(#clipPath1); fill:rgb(255,204,0); stroke:none;" height="30" />
      <text x="7" y="470.106689453125" style="clip-path:url(#clipPath1); stroke:none;" xml:space="preserve">NASM List Format</text>
      <rect x="0" y="450" width="126" style="stroke-linecap:butt; clip-path:url(#clipPath1); fill:none; stroke-miterlimit:1.4500000476837158;" height="30" />
      <rect x="457.3333333333333" y="150" width="81" style="clip-path:url(#clipPath1); fill:rgb(255,204,0); stroke:none;" height="30" />
      <text x="464.3333435058594" y="170.106689453125" style="clip-path:url(#clipPath1); stroke:none;" xml:space="preserve">GAS Parser</text>
      <rect x="457.3333333333333" y="150" width="81" style="stroke-linecap:butt; clip-path:url(#clipPath1); fill:none; stroke-miterlimit:1.4500000476837158;" height="30" />
      <rect x="330.2083333333333" y="60" width="124" style="clip-path:url(#clipPath1); fill:rgb(255,204,0); stroke:none;" height="30" />
      <text x="337.2083435058594" y="80.106689453125" style="clip-path:url(#clipPath1); stroke:none;" xml:space="preserve">GAS Preprocessor</text>
      <rect x="330.2083333333333" y="60" width="124" style="stroke-linecap:butt; clip-path:url(#clipPath1); fill:none; stroke-miterlimit:1.4500000476837158;" height="30" />
      <rect x="173.75" y="330" width="35" style="clip-path:url(#clipPath1); fill:rgb(255,204,0); stroke:none;" height="30" />
      <text x="180.75" y="350.106689453125" style="clip-path:url(#clipPath1); stroke:none;" xml:space="preserve">ELF</text>
      <rect x="173.75" y="330" width="35" style="stroke-linecap:butt; clip-path:url(#clipPath1); fill:none; stroke-miterlimit:1.4500000476837158;" height="30" />
      <rect x="153.58333333333331" y="240" width="52" style="clip-path:url(#clipPath1); fill:rgb(255,204,0); stroke:none;" height="30" />
      <text x="160.5833282470703" y="260.106689453125" style="clip-path:url(#clipPath1); stroke:none;" xml:space="preserve">STABS</text>
      <rect x="153.58333333333331" y="240" width="52" style="stroke-linecap:butt; clip-path:url(#clipPath1); fill:none; stroke-miterlimit:1.4500000476837158;" height="30" />
      <rect x="171" y="450" width="81" style="clip-path:url(#clipPath1); fill:rgb(153,204,255); stroke:none;" height="30" />
      <text x="178" y="470.106689453125" style="clip-path:url(#clipPath1); stroke:none;" xml:space="preserve">Object File</text>
      <rect x="171" y="450" width="81" style="stroke-linecap:butt; clip-path:url(#clipPath1); fill:none; stroke-miterlimit:1.4500000476837158;" height="30" />
      <rect x="22.5" y="500" width="81" style="clip-path:url(#clipPath1); fill:rgb(153,204,255); stroke:none;" height="30" />
      <text x="38.5" y="520.106689453125" style="clip-path:url(#clipPath1); stroke:none;" xml:space="preserve">List File</text>
      <rect x="22.5" y="500" width="81" style="stroke-linecap:butt; clip-path:url(#clipPath1); fill:none; stroke-miterlimit:1.4500000476837158;" height="30" />
      <rect x="264.20833333333337" y="0" width="81" style="clip-path:url(#clipPath1); fill:rgb(153,204,255); stroke:none;" height="30" />
      <text x="276.2083435058594" y="20.106689453125" style="clip-path:url(#clipPath1); stroke:none;" xml:space="preserve">.ASM File</text>
      <rect x="264.20833333333337" y="0" width="81" style="stroke-linecap:butt; clip-path:url(#clipPath1); fill:none; stroke-miterlimit:1.4500000476837158;" height="30" />
      <path style="fill:none; stroke-miterlimit:1.4500000476837158; clip-path:url(#clipPath1); stroke-linecap:butt;" d="M63 480 L63 499.9609375" />
      <path style="stroke-miterlimit:1.4500000476837158; clip-path:url(#clipPath1); stroke-linecap:butt; stroke:none;" d="M63 499.9609375 L68 487.9609375 L63 490.9609375 L58 487.9609375 Z" />
      <path style="fill:none; stroke-miterlimit:1.4500000476837158; clip-path:url(#clipPath1); stroke-linecap:butt;" d="M360.25 360 L360.25 420 L231.75 420 L231.75 449.970703125" />
      <path style="stroke-miterlimit:1.4500000476837158; clip-path:url(#clipPath1); stroke-linecap:butt; stroke:none;" d="M231.75 449.970703125 L236.75 437.970703125 L231.75 440.970703125 L226.75 437.970703125 Z" />
      <path style="fill:none; stroke-miterlimit:1.4500000476837158; clip-path:url(#clipPath1); stroke-linecap:butt;" d="M284.4583435058594 30 L284.4583435058594 45 L217.2083282470703 45 L217.2083282470703 59.970703125" />
      <path style="stroke-miterlimit:1.4500000476837158; clip-path:url(#clipPath1); stroke-linecap:butt; stroke:none;" d="M217.2083282470703 59.970703125 L222.2083282470703 47.970703125 L217.2083282470703 50.970703125 L212.2083282470703 47.970703125 Z" />
      <path style="stroke-linecap:butt; clip-path:url(#clipPath1); fill:none; stroke-dasharray:6,2; stroke-miterlimit:1.4500000476837158;" d="M183.2083282470703 90 L183.2083282470703 105 L108.58333587646484 105 L108.58333587646484 360 L15.75 360 L15.75 449.9560546875" />
      <path style="stroke-linecap:butt; clip-path:url(#clipPath1); stroke-dasharray:6,2; stroke:none; stroke-miterlimit:1.4500000476837158;" d="M15.75 449.9560546875 L20.75 437.9560546875 L15.75 440.9560546875 L10.75 437.9560546875 Z" />
      <path style="stroke-linecap:butt; clip-path:url(#clipPath1); fill:none; stroke-dasharray:6,2; stroke-miterlimit:1.4500000476837158;" d="M351.5 360 L351.5 405 L110.25 405 L110.25 449.9560546875" />
      <path style="stroke-linecap:butt; clip-path:url(#clipPath1); stroke-dasharray:6,2; stroke:none; stroke-miterlimit:1.4500000476837158;" d="M110.25 449.9560546875 L115.25 437.9560546875 L110.25 440.9560546875 L105.25 437.9560546875 Z" />
      <path style="fill:none; stroke-miterlimit:1.4500000476837158; clip-path:url(#clipPath1); stroke-linecap:butt;" d="M369 360 L369 449.9560546875" />
      <path style="stroke-miterlimit:1.4500000476837158; clip-path:url(#clipPath1); stroke-linecap:butt; stroke:none;" d="M369 360 L364 372 L369 369 L374 372 Z" />
      <path style="stroke-miterlimit:1.4500000476837158; clip-path:url(#clipPath1); stroke-linecap:butt; stroke:none;" d="M369 449.9560546875 L374 437.9560546875 L369 440.9560546875 L364 437.9560546875 Z" />
      <path style="stroke-linecap:butt; clip-path:url(#clipPath1); fill:none; stroke-dasharray:6,2; stroke-miterlimit:1.4500000476837158;" d="M377.75 360 L377.75 405 L521.7000122070312 405 L521.7000122070312 449.9560546875" />
      <path style="stroke-linecap:butt; clip-path:url(#clipPath1); stroke-dasharray:6,2; stroke:none; stroke-miterlimit:1.4500000476837158;" d="M521.7000122070312 449.9560546875 L526.7000122070312 437.9560546875 L521.7000122070312 440.9560546875 L516.7000122070312 437.9560546875 Z" />
      <path style="stroke-linecap:butt; clip-path:url(#clipPath1); fill:none; stroke-dasharray:6,2; stroke-miterlimit:1.4500000476837158;" d="M486.9166564941406 270 L486.9166564941406 285 L520.5833129882812 285 L520.5833129882812 390 L545.5 390 L545.5 449.970703125" />
      <path style="stroke-linecap:butt; clip-path:url(#clipPath1); stroke-dasharray:6,2; stroke:none; stroke-miterlimit:1.4500000476837158;" d="M545.5 449.970703125 L550.5 437.970703125 L545.5 440.970703125 L540.5 437.970703125 Z" />
      <path style="fill:none; stroke-miterlimit:1.4500000476837158; clip-path:url(#clipPath1); stroke-linecap:butt;" d="M449.5833435058594 270 L449.5833435058594 315 L373.375 315 L373.375 329.970703125" />
      <path style="stroke-miterlimit:1.4500000476837158; clip-path:url(#clipPath1); stroke-linecap:butt; stroke:none;" d="M373.375 329.970703125 L378.375 317.970703125 L373.375 320.970703125 L368.375 317.970703125 Z" />
      <path style="fill:none; stroke-miterlimit:1.4500000476837158; clip-path:url(#clipPath1); stroke-linecap:butt;" d="M412.25 270 L412.25 300 L202.9166717529297 300 L202.9166717529297 329.970703125" />
      <path style="stroke-miterlimit:1.4500000476837158; clip-path:url(#clipPath1); stroke-linecap:butt; stroke:none;" d="M202.9166717529297 329.970703125 L207.9166717529297 317.970703125 L202.9166717529297 320.970703125 L197.9166717529297 317.970703125 Z" />
      <path style="stroke-linecap:butt; clip-path:url(#clipPath1); fill:none; stroke-dasharray:6,2; stroke-miterlimit:1.4500000476837158;" d="M324.0833435058594 270 L324.0833435058594 315 L355.875 315 L355.875 329.970703125" />
      <path style="stroke-linecap:butt; clip-path:url(#clipPath1); stroke-dasharray:6,2; stroke:none; stroke-miterlimit:1.4500000476837158;" d="M324.0833435058594 270 L319.0833435058594 282 L324.0833435058594 279 L329.0833435058594 282 Z" />
      <path style="stroke-linecap:butt; clip-path:url(#clipPath1); stroke-dasharray:6,2; stroke:none; stroke-miterlimit:1.4500000476837158;" d="M355.875 329.970703125 L360.875 317.970703125 L355.875 320.970703125 L350.875 317.970703125 Z" />
      <path style="stroke-linecap:butt; clip-path:url(#clipPath1); fill:none; stroke-dasharray:6,2; stroke-miterlimit:1.4500000476837158;" d="M361.5833435058594 180 L361.5833435058594 210 L535.5833129882812 210 L535.5833129882812 375 L569.2999877929688 375 L569.2999877929688 449.96337890625" />
      <path style="stroke-linecap:butt; clip-path:url(#clipPath1); stroke-dasharray:6,2; stroke:none; stroke-miterlimit:1.4500000476837158;" d="M569.2999877929688 449.96337890625 L574.2999877929688 437.96337890625 L569.2999877929688 440.96337890625 L564.2999877929688 437.96337890625 Z" />
      <path style="fill:none; stroke-miterlimit:1.4500000476837158; clip-path:url(#clipPath1); stroke-linecap:butt;" d="M330.5833435058594 180 L330.5833435058594 225 L421.5833435058594 225 L421.5833435058594 239.970703125" />
      <path style="stroke-miterlimit:1.4500000476837158; clip-path:url(#clipPath1); stroke-linecap:butt; stroke:none;" d="M421.5833435058594 239.970703125 L426.5833435058594 227.970703125 L421.5833435058594 230.970703125 L416.5833435058594 227.970703125 Z" />
      <path style="fill:none; stroke-miterlimit:1.4500000476837158; clip-path:url(#clipPath1); stroke-linecap:butt;" d="M299.5833435058594 180 L299.5833435058594 239.970703125" />
      <path style="stroke-miterlimit:1.4500000476837158; clip-path:url(#clipPath1); stroke-linecap:butt; stroke:none;" d="M299.5833435058594 180 L294.5833435058594 192 L299.5833435058594 189 L304.5833435058594 192 Z" />
      <path style="stroke-miterlimit:1.4500000476837158; clip-path:url(#clipPath1); stroke-linecap:butt; stroke:none;" d="M299.5833435058594 239.970703125 L304.5833435058594 227.970703125 L299.5833435058594 230.970703125 L294.5833435058594 227.970703125 Z" />
      <path style="fill:none; stroke-miterlimit:1.4500000476837158; clip-path:url(#clipPath1); stroke-linecap:butt;" d="M477.5833435058594 180 L477.5833435058594 239.970703125" />
      <path style="stroke-miterlimit:1.4500000476837158; clip-path:url(#clipPath1); stroke-linecap:butt; stroke:none;" d="M477.5833435058594 239.970703125 L482.5833435058594 227.970703125 L477.5833435058594 230.970703125 L472.5833435058594 227.970703125 Z" />
      <path style="stroke-linecap:butt; clip-path:url(#clipPath1); fill:none; stroke-dasharray:6,2; stroke-miterlimit:1.4500000476837158;" d="M518.0833129882812 180 L518.0833129882812 195 L550.5833129882812 195 L550.5833129882812 360 L593.0999755859375 360 L593.0999755859375 449.9560546875" />
      <path style="stroke-linecap:butt; clip-path:url(#clipPath1); stroke-dasharray:6,2; stroke:none; stroke-miterlimit:1.4500000476837158;" d="M593.0999755859375 449.9560546875 L598.0999755859375 437.9560546875 L593.0999755859375 440.9560546875 L588.0999755859375 437.9560546875 Z" />
      <path style="stroke-linecap:butt; clip-path:url(#clipPath1); fill:none; stroke-dasharray:6,2; stroke-miterlimit:1.4500000476837158;" d="M361.2083435058594 90 L361.2083435058594 120 L123.58333587646484 120 L123.58333587646484 375 L47.25 375 L47.25 449.96337890625" />
      <path style="stroke-linecap:butt; clip-path:url(#clipPath1); stroke-dasharray:6,2; stroke:none; stroke-miterlimit:1.4500000476837158;" d="M47.25 449.96337890625 L52.25 437.96337890625 L47.25 440.96337890625 L42.25 437.96337890625 Z" />
      <path style="stroke-linecap:butt; clip-path:url(#clipPath1); fill:none; stroke-dasharray:6,2; stroke-miterlimit:1.4500000476837158;" d="M179.5833282470703 360 L179.5833282470703 390 L78.75 390 L78.75 449.970703125" />
      <path style="stroke-linecap:butt; clip-path:url(#clipPath1); stroke-dasharray:6,2; stroke:none; stroke-miterlimit:1.4500000476837158;" d="M78.75 449.970703125 L83.75 437.970703125 L78.75 440.970703125 L73.75 437.970703125 Z" />
      <path style="fill:none; stroke-miterlimit:1.4500000476837158; clip-path:url(#clipPath1); stroke-linecap:butt;" d="M179.5833282470703 270 L179.5833282470703 329.970703125" />
      <path style="stroke-miterlimit:1.4500000476837158; clip-path:url(#clipPath1); stroke-linecap:butt; stroke:none;" d="M179.5833282470703 270 L174.5833282470703 282 L179.5833282470703 279 L184.5833282470703 282 Z" />
      <path style="stroke-miterlimit:1.4500000476837158; clip-path:url(#clipPath1); stroke-linecap:butt; stroke:none;" d="M179.5833282470703 329.970703125 L184.5833282470703 317.970703125 L179.5833282470703 320.970703125 L174.5833282470703 317.970703125 Z" />
      <path style="fill:none; stroke-miterlimit:1.4500000476837158; clip-path:url(#clipPath1); stroke-linecap:butt;" d="M191.25 360 L191.25 449.9560546875" />
      <path style="stroke-miterlimit:1.4500000476837158; clip-path:url(#clipPath1); stroke-linecap:butt; stroke:none;" d="M191.25 449.9560546875 L196.25 437.9560546875 L191.25 440.9560546875 L186.25 437.9560546875 Z" />
      <path style="fill:none; stroke-miterlimit:1.4500000476837158; clip-path:url(#clipPath1); stroke-linecap:butt;" d="M324.9583435058594 30 L324.9583435058594 45 L392.2083435058594 45 L392.2083435058594 59.970703125" />
      <path style="stroke-miterlimit:1.4500000476837158; clip-path:url(#clipPath1); stroke-linecap:butt; stroke:none;" d="M392.2083435058594 59.970703125 L397.2083435058594 47.970703125 L392.2083435058594 50.970703125 L387.2083435058594 47.970703125 Z" />
      <path style="stroke-linecap:butt; clip-path:url(#clipPath1); fill:none; stroke-dasharray:6,2; stroke-miterlimit:1.4500000476837158;" d="M202.9166717529297 360 L202.9166717529297 435 L497.8999938964844 435 L497.8999938964844 449.970703125" />
      <path style="stroke-linecap:butt; clip-path:url(#clipPath1); stroke-dasharray:6,2; stroke:none; stroke-miterlimit:1.4500000476837158;" d="M497.8999938964844 449.970703125 L502.8999938964844 437.970703125 L497.8999938964844 440.970703125 L492.8999938964844 437.970703125 Z" />
      <path style="fill:none; stroke-miterlimit:1.4500000476837158; clip-path:url(#clipPath1); stroke-linecap:butt;" d="M251.2083282470703 90 L251.2083282470703 135 L330.5833435058594 135 L330.5833435058594 149.970703125" />
      <path style="stroke-miterlimit:1.4500000476837158; clip-path:url(#clipPath1); stroke-linecap:butt; stroke:none;" d="M330.5833435058594 149.970703125 L335.5833435058594 137.970703125 L330.5833435058594 140.970703125 L325.5833435058594 137.970703125 Z" />
      <path style="fill:none; stroke-miterlimit:1.4500000476837158; clip-path:url(#clipPath1); stroke-linecap:butt;" d="M423.2083435058594 90 L423.2083435058594 105 L497.8333435058594 105 L497.8333435058594 149.9560546875" />
      <path style="stroke-miterlimit:1.4500000476837158; clip-path:url(#clipPath1); stroke-linecap:butt; stroke:none;" d="M497.8333435058594 149.9560546875 L502.8333435058594 137.9560546875 L497.8333435058594 140.9560546875 L492.8333435058594 137.9560546875 Z" />
      <path style="stroke-linecap:butt; clip-path:url(#clipPath1); fill:none; stroke-dasharray:6,2; stroke-miterlimit:1.4500000476837158;" d="M275.0833435058594 270 L275.0833435058594 285 L191.25 285 L191.25 329.9560546875" />
      <path style="stroke-linecap:butt; clip-path:url(#clipPath1); stroke-dasharray:6,2; stroke:none; stroke-miterlimit:1.4500000476837158;" d="M275.0833435058594 270 L270.0833435058594 282 L275.0833435058594 279 L280.0833435058594 282 Z" />
      <path style="stroke-linecap:butt; clip-path:url(#clipPath1); stroke-dasharray:6,2; stroke:none; stroke-miterlimit:1.4500000476837158;" d="M191.25 329.9560546875 L196.25 317.9560546875 L191.25 320.9560546875 L186.25 317.9560546875 Z" />
    </g>
  </g>
</svg>
