<?xml version="1.0" encoding="UTF-8"?>

<!DOCTYPE svg PUBLIC '-//W3C//DTD SVG 1.0//EN' 'http://www.w3.org/TR/2001/REC-SVG-20010904/DTD/svg10.dtd'>
<svg style="fill-opacity:1; color-rendering:auto; color-interpolation:auto; text-rendering:auto; stroke:black; stroke-linecap:square; stroke-miterlimit:10; shape-rendering:auto; stroke-opacity:1; fill:black; stroke-dasharray:none; font-weight:normal; stroke-width:1; font-family:&apos;sansserif&apos;; font-style:normal; stroke-linejoin:miter; font-size:12; stroke-dashoffset:0; image-rendering:auto;" xmlns="http://www.w3.org/2000/svg" width="673" xmlns:xlink="http://www.w3.org/1999/xlink" height="135">
  <!--Generated by the Batik Graphics2D SVG Generator-->
  <defs id="genericDefs" />
  <g>
    <defs id="defs1">
      <clipPath clipPathUnits="userSpaceOnUse" id="clipPath1">
        <path d="M-15 -15 L658 -15 L658 120 L-15 120 L-15 -15 Z" />
      </clipPath>
      <clipPath clipPathUnits="userSpaceOnUse" id="clipPath2">
        <path d="M0 0 L673 0 L673 135 L0 135 L0 0 Z" />
      </clipPath>
    </defs>
    <g style="fill:white; stroke:white;" transform="translate(15,15)">
      <rect x="-15" y="-15" width="673" style="clip-path:url(#clipPath1); stroke:none;" height="135" />
    </g>
    <g style="fill:white; stroke:white;">
      <rect x="9.125" y="111.75" width="104.904296875" style="clip-path:url(#clipPath2); stroke:none;" height="15.5625" />
      <text x="10" y="123" style="clip-path:url(#clipPath2); fill:silver; font-family:sans-serif; stroke:none;" xml:space="preserve">Powered by yFiles</text>
    </g>
    <g style="fill:rgb(153,204,255); stroke:rgb(153,204,255);" transform="matrix(1,0,0,1,15,15)">
      <rect x="0" y="75" width="81" style="clip-path:url(#clipPath1); stroke:none;" height="30" />
    </g>
    <g style="font-size:13; font-family:sans-serif;" transform="matrix(1,0,0,1,15,15)">
      <text x="12" y="95.106689453125" style="clip-path:url(#clipPath1); stroke:none;" xml:space="preserve">.ASM File</text>
      <rect x="0" y="75" width="81" style="stroke-linecap:butt; clip-path:url(#clipPath1); fill:none; stroke-miterlimit:1.4500000476837158;" height="30" />
      <rect x="101" y="75" width="95" style="clip-path:url(#clipPath1); fill:rgb(255,204,0); stroke:none;" height="30" />
      <text x="108" y="95.106689453125" style="clip-path:url(#clipPath1); stroke:none;" xml:space="preserve">Preprocessor</text>
      <rect x="101" y="75" width="95" style="stroke-linecap:butt; clip-path:url(#clipPath1); fill:none; stroke-miterlimit:1.4500000476837158;" height="30" />
      <rect x="306" y="0" width="103" style="clip-path:url(#clipPath1); fill:rgb(255,204,0); stroke:none;" height="30" />
      <text x="313" y="20.106689453125" style="clip-path:url(#clipPath1); stroke:none;" xml:space="preserve">Debug Format</text>
      <rect x="306" y="0" width="103" style="stroke-linecap:butt; clip-path:url(#clipPath1); fill:none; stroke-miterlimit:1.4500000476837158;" height="30" />
      <rect x="439" y="37.5" width="103" style="clip-path:url(#clipPath1); fill:rgb(255,204,0); stroke:none;" height="30" />
      <text x="446" y="57.606689453125" style="clip-path:url(#clipPath1); stroke:none;" xml:space="preserve">Object Format</text>
      <rect x="439" y="37.5" width="103" style="stroke-linecap:butt; clip-path:url(#clipPath1); fill:none; stroke-miterlimit:1.4500000476837158;" height="30" />
      <rect x="319.5" y="75" width="76" style="clip-path:url(#clipPath1); fill:rgb(255,204,0); stroke:none;" height="30" />
      <text x="326.5" y="95.106689453125" style="clip-path:url(#clipPath1); stroke:none;" xml:space="preserve">Optimizer</text>
      <rect x="319.5" y="75" width="76" style="stroke-linecap:butt; clip-path:url(#clipPath1); fill:none; stroke-miterlimit:1.4500000476837158;" height="30" />
      <rect x="216" y="75" width="80" style="clip-path:url(#clipPath1); fill:rgb(255,204,0); stroke:none;" height="30" />
      <text x="237" y="95.106689453125" style="clip-path:url(#clipPath1); stroke:none;" xml:space="preserve">Parser</text>
      <rect x="216" y="75" width="80" style="stroke-linecap:butt; clip-path:url(#clipPath1); fill:none; stroke-miterlimit:1.4500000476837158;" height="30" />
      <rect x="562" y="37.5" width="81" style="clip-path:url(#clipPath1); fill:rgb(153,204,255); stroke:none;" height="30" />
      <text x="569" y="57.606689453125" style="clip-path:url(#clipPath1); stroke:none;" xml:space="preserve">Object File</text>
      <rect x="562" y="37.5" width="81" style="stroke-linecap:butt; clip-path:url(#clipPath1); fill:none; stroke-miterlimit:1.4500000476837158;" height="30" />
      <path style="fill:none; stroke-miterlimit:1.4500000476837158; clip-path:url(#clipPath1); stroke-linecap:butt;" d="M81 90 L100.9609375 90" />
      <path style="stroke-miterlimit:1.4500000476837158; clip-path:url(#clipPath1); stroke-linecap:butt; stroke:none;" d="M100.9609375 90 L88.9609375 85 L91.9609375 90 L88.9609375 95 Z" />
      <path style="fill:none; stroke-miterlimit:1.4500000476837158; clip-path:url(#clipPath1); stroke-linecap:butt;" d="M296 90 L319.4541015625 90" />
      <path style="stroke-miterlimit:1.4500000476837158; clip-path:url(#clipPath1); stroke-linecap:butt; stroke:none;" d="M319.4541015625 90 L307.4541015625 85 L310.4541015625 90 L307.4541015625 95 Z" />
      <path style="fill:none; stroke-miterlimit:1.4500000476837158; clip-path:url(#clipPath1); stroke-linecap:butt;" d="M395.5 90 L410.5 90 L410.5 60 L438.97216796875 60" />
      <path style="stroke-miterlimit:1.4500000476837158; clip-path:url(#clipPath1); stroke-linecap:butt; stroke:none;" d="M438.97216796875 60 L426.97216796875 55 L429.97216796875 60 L426.97216796875 65 Z" />
      <path style="fill:none; stroke-miterlimit:1.4500000476837158; clip-path:url(#clipPath1); stroke-linecap:butt;" d="M542 52.5 L561.9609375 52.5" />
      <path style="stroke-miterlimit:1.4500000476837158; clip-path:url(#clipPath1); stroke-linecap:butt; stroke:none;" d="M561.9609375 52.5 L549.9609375 47.5 L552.9609375 52.5 L549.9609375 57.5 Z" />
      <path style="fill:none; stroke-miterlimit:1.4500000476837158; clip-path:url(#clipPath1); stroke-linecap:butt;" d="M196 90 L215.9609375 90" />
      <path style="stroke-miterlimit:1.4500000476837158; clip-path:url(#clipPath1); stroke-linecap:butt; stroke:none;" d="M215.9609375 90 L203.9609375 85 L206.9609375 90 L203.9609375 95 Z" />
      <path style="fill:none; stroke-miterlimit:1.4500000476837158; clip-path:url(#clipPath1); stroke-linecap:butt;" d="M409 15 L424 15 L424 45 L438.970703125 45" />
      <path style="stroke-miterlimit:1.4500000476837158; clip-path:url(#clipPath1); stroke-linecap:butt; stroke:none;" d="M409 15 L421 20 L418 15 L421 10 Z" />
      <path style="stroke-miterlimit:1.4500000476837158; clip-path:url(#clipPath1); stroke-linecap:butt; stroke:none;" d="M438.970703125 45 L426.970703125 40 L429.970703125 45 L426.970703125 50 Z" />
    </g>
  </g>
</svg>
